<?xml version="1.0" encoding="utf-8"?>
<!-- Generator: Adobe Illustrator 25.0.0, SVG Export Plug-In . SVG Version: 6.00 Build 0)  -->
<svg version="1.1" id="Layer_1" xmlns="http://www.w3.org/2000/svg" xmlns:xlink="http://www.w3.org/1999/xlink" x="0px" y="0px"
	 viewBox="0 0 20 20" style="enable-background:new 0 0 20 20;" xml:space="preserve">
<style type="text/css">
	.st0{fill:#EA2729;}
	.st1{fill:#AF2427;}
	.st2{fill:#EB3332;}
</style>
<g>
	<path class="st0" d="M13,2.6C13,2.6,13,2.7,13,2.6c0.1,0.3,0.2,0.5,0.2,0.7c0.1,0.2,0.1,0.4,0.2,0.5c0.2,0.7,0.4,1.4,0.7,2.1
		c0,0,0,0.1,0,0.1c0,0,0,0.1,0,0.1c0,0,0,0,0,0.1c0,0,0,0,0,0.1c0,0,0,0,0,0c0.2,0.6,0.4,1.2,0.6,1.8c0,0,0,0,0,0
		c0,0.1,0.1,0.3,0.1,0.4c0,0,0,0,0,0c0.2,0.5,0.3,1,0.5,1.4c0.5,1.6,1,3.2,1.5,4.7c0.1,0.3,0.2,0.6,0.3,0.9c0,0.1,0.1,0.2,0.1,0.3
		c0.1,0.3,0.2,0.6,0.3,0.9c0,0,0,0,0,0c0,0.1,0.1,0.2,0.1,0.3c0,0.1,0,0.3,0,0.4c0,0.1-0.1,0.2-0.1,0.3c-0.6,0.7-1.2,0.5-1.7,0
		c0,0,0,0,0,0c-1.2-0.9-2.3-1.8-3.5-2.7c0,0,0,0,0,0c-0.1-0.1-0.2-0.2-0.3-0.3c0,0,0,0,0,0c-0.6-0.5-1.3-1-1.9-1.5
		c-0.1,0-0.2-0.1-0.2,0c-0.9,0.3-1.9,0.7-2.8,1c-0.4,0.1-0.7,0.3-1.1,0.4c0,0-0.1,0-0.1,0c-0.3,0.1-0.7,0.2-1,0.4c0,0-0.1,0-0.1,0.1
		c-0.4,0.1-0.7,0.3-1.1,0.4c0,0,0,0,0,0c-0.2,0.1-0.4,0.2-0.6,0.2c-0.1,0-0.3,0.1-0.4,0.1c-0.2,0-0.3,0.1-0.5,0.1c0,0-0.1,0-0.1,0
		c0,0,0-0.1,0-0.1c2.9-3.8,5.8-7.5,8.7-11.3c0.1,0.3,0.2,0.5,0.3,0.8c0,0,0,0.1,0,0.1l0,0c0,0.1,0,0.1,0,0.2c0,0,0,0.1,0,0.1
		c0,0.1,0,0.1,0,0.2C10.5,6.5,10,7.1,9.6,7.7l0,0C9.1,8.4,8.5,9,8,9.6l0,0c-0.5,0.6-1,1.3-1.5,1.9c-0.4,0.5-0.8,1-1.2,1.4
		c-0.1,0.2-0.3,0.3-0.4,0.5c0.2-0.1,0.4-0.1,0.6-0.2c1.5-0.6,3-1.2,4.5-1.7c0.1,0,0.3,0,0.4,0.1c1.8,1.3,3.5,2.7,5.2,4
		c0,0,0.1,0.1,0.2,0.1c0-0.1,0-0.1,0-0.2C14.3,11.3,13,7,11.6,2.7c-0.1-0.2-0.1-0.4-0.1-0.6c0-0.1,0-0.2,0.1-0.3
		c0.1-0.1,0.2-0.1,0.3-0.1c0.2,0,0.3,0,0.5,0.1c0.1,0,0.2,0.1,0.2,0.2c0.1,0.1,0.2,0.1,0.2,0.2C12.8,2.4,12.9,2.5,13,2.6z"/>
	<path class="st1" d="M10.8,5.4c0-0.1-0.1-0.2-0.1-0.3c-0.1-0.2-0.1-0.3-0.2-0.5c0-0.1-0.1-0.2-0.1-0.3c-0.1,0.1-0.2,0.2-0.2,0.3
		c-3,3.7-6,7.5-9,11.2C1.1,15.8,1,15.9,1,15.9c-0.2-0.8-0.5-1.1,0.1-1.8C2.7,12,4.3,9.9,6,7.8c0.8-1,1.6-2.1,2.5-3.1
		C9.2,3.8,10,2.8,10.9,2c1.3,4.1,2.7,8.3,4,12.4c0,0.1,0,0.1,0,0.2c-0.1,0-0.1,0-0.2-0.1c-1.4-1.1-2.9-2.1-4.3-3.2
		c-0.1-0.1-0.4-0.1-0.5-0.1c-1.5,0.6-3.1,1.2-4.6,1.8c0.4-0.5,0.8-1,1.2-1.4c1-0.5,2-1,3.1-1.5c0,0,0,0,0,0c0.1,0,0.1,0,0.1,0
		c0.6-0.2,0.5-0.2,0.9-0.3c0,0,0.3,0.2,0.3,0.2c0.7,0.5,1.3,1.1,2,1.6c0,0,0.1,0,0.1,0.1c0,0,0-0.1,0-0.1c-0.2-0.5-0.4-1-0.5-1.6
		l0,0c-0.3-0.8-0.5-1.5-0.8-2.3c0-0.1-0.1-0.2-0.1-0.3c0-0.1-0.1-0.2-0.1-0.3c-0.1-0.2-0.2-0.5-0.2-0.7C11,6,10.9,5.7,10.8,5.4z"/>
	<path class="st2" d="M10.8,5.5c0,0.1,0,0.1,0,0.2C10.9,5.6,10.9,5.6,10.8,5.5z"/>
	<path class="st2" d="M10.8,5.4C10.8,5.4,10.8,5.5,10.8,5.4C10.8,5.5,10.8,5.4,10.8,5.4z"/>
	<path class="st2" d="M10.9,5.7C10.9,5.7,10.9,5.7,10.9,5.7C10.9,5.7,10.9,5.7,10.9,5.7z"/>
</g>
</svg>
